<svg xmlns="http://www.w3.org/2000/svg" width="75" height="75" viewBox="0 0 75 75">
  <g id="Grupo_157" data-name="Grupo 157" transform="translate(-631 -475)">
    <g id="filled_outline" transform="translate(628.5 472.5)">
      <path id="Caminho_2245" data-name="Caminho 2245" d="M16.972,23.635A6.252,6.252,0,0,0,6.252,27.818,5,5,0,1,0,13.31,34.2,6.258,6.258,0,0,0,16.1,33.11a5,5,0,1,0,.87-9.476Z" fill="#707070"/>
      <path id="Caminho_2246" data-name="Caminho 2246" d="M14.773,35.075a1.25,1.25,0,0,1-1.165-.8l-2.272-5.823a1.25,1.25,0,0,1,2.329-.909l2.273,5.822a1.25,1.25,0,0,1-1.164,1.7Z" fill="#027e2a"/>
      <path id="Caminho_2247" data-name="Caminho 2247" d="M17.1,34.166c-.038,0-.077,0-.116-.005a1.25,1.25,0,0,1-1.13-1.359h0A9.7,9.7,0,0,1,18.3,27.221a1.25,1.25,0,1,1,1.868,1.661l-.014.015a7.181,7.181,0,0,0-1.812,4.133A1.25,1.25,0,0,1,17.1,34.166Z" fill="#027e2a"/>
      <path id="Caminho_2248" data-name="Caminho 2248" d="M12.443,35.984a1.246,1.246,0,0,1-.838-.323,7.179,7.179,0,0,0-4.133-1.812,1.25,1.25,0,0,1,.229-2.49,9.7,9.7,0,0,1,5.58,2.447,1.25,1.25,0,0,1-.838,2.178Z" fill="#027e2a"/>
      <path id="Caminho_2249" data-name="Caminho 2249" d="M29.428,57.625l-9.316,3.636-8.979-18a6.849,6.849,0,0,1,3.072-9.186q.277-.139.567-.251a6.849,6.849,0,0,1,8.87,3.89q.113.289.2.588Z" fill="#707070"/>
      <path id="Caminho_2250" data-name="Caminho 2250" d="M42.5,3.75h5v35h-5Z" fill="#707070"/>
      <path id="Caminho_2251" data-name="Caminho 2251" d="M44.861,29.053a10.781,10.781,0,0,0-.591-2.2L38.75,12.5,35,13.75l5.355,13.922a13.429,13.429,0,0,1,.9,4.823v4.436Z" fill="#707070"/>
      <path id="Caminho_2252" data-name="Caminho 2252" d="M50.361,50.9a4.753,4.753,0,0,1,0,5.7l-.017.023a5.313,5.313,0,0,1-4.25,2.125H43.906a5.313,5.313,0,0,1-4.25-2.125l-.017-.023a4.753,4.753,0,0,1,0-5.7L41.25,48.75V36.931l3.611-7.878.139-.3L51.25,12.5,55,13.75,49.645,27.672a13.429,13.429,0,0,0-.9,4.823V48.75Z" fill="#707070"/>
      <path id="Caminho_2253" data-name="Caminho 2253" d="M50.361,56.6l-.017.023a5.29,5.29,0,0,1-2.013,1.63l-7.473-.467a5.264,5.264,0,0,1-1.2-1.163l-.017-.023a4.753,4.753,0,0,1,0-5.7l.111-.148,1.5-.75,7.5-17.5V48.75L50.361,50.9A4.753,4.753,0,0,1,50.361,56.6Z" fill="#707070"/>
      <g id="Grupo_94" data-name="Grupo 94">
        <path id="Caminho_2254" data-name="Caminho 2254" d="M12.586,46.663a1.25,1.25,0,0,1-.455-2.415l2.329-.909a1.25,1.25,0,1,1,.909,2.329l-2.328.909a1.249,1.249,0,0,1-.455.086Z" fill="#e78244"/>
        <path id="Caminho_2255" data-name="Caminho 2255" d="M19.573,43.936a1.25,1.25,0,0,1-.455-2.415l2.329-.909a1.25,1.25,0,0,1,.909,2.329l-2.328.909a1.252,1.252,0,0,1-.455.086Z" fill="#e78244"/>
        <path id="Caminho_2256" data-name="Caminho 2256" d="M14.6,51.207a1.25,1.25,0,0,1-.455-2.415l3.3-1.25a1.25,1.25,0,0,1,.909,2.329l-3.3,1.25a1.251,1.251,0,0,1-.454.086Z" fill="#e78244"/>
        <path id="Caminho_2257" data-name="Caminho 2257" d="M22.555,48.141a1.25,1.25,0,0,1-.455-2.415l1.165-.455a1.25,1.25,0,0,1,.909,2.329l-1.165.454a1.253,1.253,0,0,1-.454.086Z" fill="#e78244"/>
      </g>
      <path id="Caminho_2258" data-name="Caminho 2258" d="M29.531,31.25H32.5a5.313,5.313,0,0,1,4.752,2.937l1.031,2.063H35.315a5.312,5.312,0,0,1-4.752-2.937Z" fill="#707070"/>
      <path id="Caminho_2259" data-name="Caminho 2259" d="M35.568,43.437a1.25,1.25,0,0,1-1.25-1.25,8.9,8.9,0,0,1,7.133-8.7l.122-.024a1.25,1.25,0,1,1,.49,2.452l-.121.024a6.391,6.391,0,0,0-5.124,6.25,1.25,1.25,0,0,1-1.25,1.25Z" fill="#707070"/>
      <path id="Caminho_2260" data-name="Caminho 2260" d="M50.361,56.6l-.017.023a5.29,5.29,0,0,1-2.013,1.63l-7.473-.467a5.264,5.264,0,0,1-1.2-1.163l-.017-.023a4.753,4.753,0,0,1,0-5.7l.111-.148,1.5-.75,7.5-17.5V48.75L50.361,50.9A4.753,4.753,0,0,1,50.361,56.6Z" fill="#cbcbcb"/>
      <path id="Caminho_2261" data-name="Caminho 2261" d="M31.092,39.687a3.692,3.692,0,0,1,3.072,1.644,1.688,1.688,0,0,0,2.808,0,3.692,3.692,0,0,1,5.954-.258l.294.367a8.125,8.125,0,0,1,.545,9.382l-2.439,3.9a2.581,2.581,0,0,1-4.014.457,2.466,2.466,0,0,0-3.488,0,2.581,2.581,0,0,1-4.014-.457l-2.439-3.9a8.125,8.125,0,0,1,.545-9.382l.293-.367a3.692,3.692,0,0,1,2.883-1.385Z" fill="#707070"/>
      <path id="Caminho_2262" data-name="Caminho 2262" d="M31.969,50a1.247,1.247,0,0,1-.884-.366,3.7,3.7,0,0,1-.694-4.275l.46-.919a1.25,1.25,0,0,1,2.236,1.118l-.459.919a1.2,1.2,0,0,0,.225,1.388A1.25,1.25,0,0,1,31.969,50Z" fill="#ff6268"/>
      <path id="Caminho_2263" data-name="Caminho 2263" d="M3.75,61.25h72.5v7.5H3.75Z" fill="#707070"/>
      <path id="Caminho_2264" data-name="Caminho 2264" d="M11.25,66.25H8.75a1.25,1.25,0,0,1,0-2.5h2.5a1.25,1.25,0,1,1,0,2.5Z" fill="#c38325"/>
      <path id="Caminho_2265" data-name="Caminho 2265" d="M71.25,66.25h-2.5a1.25,1.25,0,0,1,0-2.5h2.5a1.25,1.25,0,0,1,0,2.5Z" fill="#c38325"/>
      <path id="Caminho_2266" data-name="Caminho 2266" d="M3.75,68.75h72.5v7.5H3.75Z" fill="#707070"/>
      <path id="Caminho_2267" data-name="Caminho 2267" d="M11.25,73.75H8.75a1.25,1.25,0,0,1,0-2.5h2.5a1.25,1.25,0,1,1,0,2.5Z" fill="#c38325"/>
      <path id="Caminho_2268" data-name="Caminho 2268" d="M41.25,66.25h-2.5a1.25,1.25,0,0,1,0-2.5h2.5a1.25,1.25,0,1,1,0,2.5Z" fill="#c38325"/>
      <path id="Caminho_2269" data-name="Caminho 2269" d="M41.25,73.75h-2.5a1.25,1.25,0,0,1,0-2.5h2.5a1.25,1.25,0,1,1,0,2.5Z" fill="#c38325"/>
      <path id="Caminho_2270" data-name="Caminho 2270" d="M71.25,73.75h-2.5a1.25,1.25,0,0,1,0-2.5h2.5a1.25,1.25,0,0,1,0,2.5Z" fill="#c38325"/>
      <path id="Caminho_2271" data-name="Caminho 2271" d="M55,46.25l1.1,1.1a9.054,9.054,0,0,1,2.652,6.4H62.5V52.5a9.054,9.054,0,0,0-2.652-6.4L58.75,45Z" fill="#707070"/>
      <path id="Caminho_2272" data-name="Caminho 2272" d="M70,46.25l-1.1,1.1a9.054,9.054,0,0,0-2.652,6.4H62.5V52.5a9.054,9.054,0,0,1,2.652-6.4l1.1-1.1Z" fill="#707070"/>
      <path id="Caminho_2273" data-name="Caminho 2273" d="M76.25,36.562a4.678,4.678,0,0,0-1.69-3.6,4.685,4.685,0,0,0-4.248-5.76,9.373,9.373,0,0,0-16.248,0,4.686,4.686,0,0,0-4.248,5.76,4.685,4.685,0,0,0-.629,6.572,6.25,6.25,0,0,0,9.337,7.9,7.771,7.771,0,0,0,3.664-1.495,7.772,7.772,0,0,0,3.664,1.5,6.25,6.25,0,0,0,9.337-7.9,4.666,4.666,0,0,0,1.061-2.969Z" fill="#707070"/>
      <path id="Caminho_2274" data-name="Caminho 2274" d="M65.724,31.25a1.25,1.25,0,0,1-1.179-.834,2.5,2.5,0,0,0-4.716,0,1.25,1.25,0,0,1-2.357-.833,5,5,0,0,1,9.43,0,1.25,1.25,0,0,1-1.179,1.667Z" fill="#027e2a"/>
      <path id="Caminho_2275" data-name="Caminho 2275" d="M55.937,40a3.75,3.75,0,0,1,0-7.5,1.25,1.25,0,0,1,0,2.5,1.25,1.25,0,0,0,0,2.5,1.25,1.25,0,0,1,0,2.5Z" fill="#027e2a"/>
      <path id="Caminho_2276" data-name="Caminho 2276" d="M3.75,53.75h72.5v7.5H3.75Z" fill="#707070"/>
      <path id="Caminho_2277" data-name="Caminho 2277" d="M11.25,58.75H8.75a1.25,1.25,0,0,1,0-2.5h2.5a1.25,1.25,0,0,1,0,2.5Z" fill="#c38325"/>
      <path id="Caminho_2278" data-name="Caminho 2278" d="M71.25,58.75h-2.5a1.25,1.25,0,0,1,0-2.5h2.5a1.25,1.25,0,0,1,0,2.5Z" fill="#c38325"/>
      <path id="Caminho_2279" data-name="Caminho 2279" d="M41.25,58.75h-2.5a1.25,1.25,0,0,1,0-2.5h2.5a1.25,1.25,0,0,1,0,2.5Z" fill="#c38325"/>
      <path id="Caminho_2280" data-name="Caminho 2280" d="M8.75,66.25h2.5a1.25,1.25,0,1,0,0-2.5H8.75a1.25,1.25,0,0,0,0,2.5Z"/>
      <path id="Caminho_2281" data-name="Caminho 2281" d="M68.75,66.25h2.5a1.25,1.25,0,0,0,0-2.5h-2.5a1.25,1.25,0,0,0,0,2.5Z"/>
      <path id="Caminho_2282" data-name="Caminho 2282" d="M8.75,73.75h2.5a1.25,1.25,0,1,0,0-2.5H8.75a1.25,1.25,0,0,0,0,2.5Z"/>
      <path id="Caminho_2283" data-name="Caminho 2283" d="M38.75,66.25h2.5a1.25,1.25,0,1,0,0-2.5h-2.5a1.25,1.25,0,0,0,0,2.5Z"/>
      <path id="Caminho_2284" data-name="Caminho 2284" d="M38.75,73.75h2.5a1.25,1.25,0,1,0,0-2.5h-2.5a1.25,1.25,0,0,0,0,2.5Z"/>
      <path id="Caminho_2285" data-name="Caminho 2285" d="M68.75,73.75h2.5a1.25,1.25,0,0,0,0-2.5h-2.5a1.25,1.25,0,0,0,0,2.5Z"/>
      <path id="Caminho_2286" data-name="Caminho 2286" d="M23.066,41.323a1.25,1.25,0,0,0-1.619-.71l-2.329.909a1.25,1.25,0,0,0,.909,2.329l2.329-.909a1.25,1.25,0,0,0,.71-1.619Z"/>
      <path id="Caminho_2287" data-name="Caminho 2287" d="M75.9,32.511a5.933,5.933,0,0,0-4.842-6.478,10.621,10.621,0,0,0-17.746,0,5.881,5.881,0,0,0-1.989.751L56.167,14.2a1.25,1.25,0,0,0-.718-1.615l-.054-.019-3.75-1.25a1.25,1.25,0,0,0-1.562.737L48.75,15.518V3.75A1.25,1.25,0,0,0,47.5,2.5h-5a1.25,1.25,0,0,0-1.25,1.25V15.518l-1.333-3.467a1.25,1.25,0,0,0-1.562-.737l-3.75,1.25a1.25,1.25,0,0,0-.791,1.581c.006.018.012.036.019.054l5.355,13.922A12.137,12.137,0,0,1,40,32.5v1.412a8.85,8.85,0,0,0-1.207.57l-.425-.85A6.527,6.527,0,0,0,32.5,30H29.531a1.25,1.25,0,0,0-1.118,1.809l1.031,2.062a6.526,6.526,0,0,0,5.87,3.628h.337a8.845,8.845,0,0,0-1.038,2.413,4.942,4.942,0,0,0-7.381.379l-.293.367a9.343,9.343,0,0,0-.784,1.146l-1.113-3.849a8.118,8.118,0,0,0-3.224-4.443A6.251,6.251,0,0,0,17.376,22.3,7.5,7.5,0,0,0,5.052,27.111a6.3,6.3,0,0,0-2.123,7.311A6.228,6.228,0,0,0,9.377,38.37a8.118,8.118,0,0,0,.638,5.451L14.345,52.5H3.75A1.25,1.25,0,0,0,2.5,53.75v22.5A1.25,1.25,0,0,0,3.75,77.5h72.5a1.25,1.25,0,0,0,1.25-1.25V53.75a1.25,1.25,0,0,0-1.25-1.25H68.422a7.764,7.764,0,0,1,.866-2.512c.132.007.266.012.4.012a7.5,7.5,0,0,0,6.941-10.343,5.935,5.935,0,0,0-.726-7.146ZM62.286,50.41a10.211,10.211,0,0,0-.887-2.542c.269-.128.533-.269.788-.424a9.071,9.071,0,0,0,.948.5,10.255,10.255,0,0,0-.85,2.469Zm-3.3-1.762A7.764,7.764,0,0,1,60,52.5H58.675a10.253,10.253,0,0,0-.917-3.154A7.5,7.5,0,0,0,58.982,48.647Zm-3.7,1.33a7.764,7.764,0,0,1,.872,2.523h-3.72a5.983,5.983,0,0,0-1.068-2.351L50.027,48.37A7.461,7.461,0,0,0,54.687,50q.3,0,.589-.023ZM44.825,51.484a9.387,9.387,0,0,0,.755-8.443l1.73-4.262a5.967,5.967,0,0,0,.437.877,7.5,7.5,0,0,0-.247,4.982V48.75a1.25,1.25,0,0,0,.25.75l1.611,2.149a3.494,3.494,0,0,1,.469.851H44.189Zm7.163-37.421,1.376.459-4.885,12.7a14.613,14.613,0,0,0-.947,4.363l-3.566,8.785-.064-.08a4.949,4.949,0,0,0-1.4-1.2V37.2ZM43.75,21.875V5h2.5V21.535a1.251,1.251,0,0,0,.051.351L45,25.269,43.744,22A1.25,1.25,0,0,0,43.75,21.875Zm-7.114-7.353,1.375-.459L43.1,27.3a9.536,9.536,0,0,1,.456,1.587L42.45,31.313a14.612,14.612,0,0,0-.929-4.09ZM40,36.931v1.508a4.935,4.935,0,0,0-2.37.628,6.36,6.36,0,0,1,2.37-2.4Zm-8.319-4.177-.127-.254H32.5a4.04,4.04,0,0,1,3.634,2.246l.127.254h-.944A4.04,4.04,0,0,1,31.681,32.754Zm-2.789,9.467.294-.367a2.441,2.441,0,0,1,3.937.171,2.938,2.938,0,0,0,4.888,0,2.444,2.444,0,0,1,2.831-.953l.023.008a2.434,2.434,0,0,1,1.084.774l.293.367A6.885,6.885,0,0,1,42.7,50.16L41.242,52.5H29.893L28.43,50.159a6.884,6.884,0,0,1,.461-7.939ZM24.9,46.033l-.008-.025.009.01c0,.006,0,.011,0,.016ZM5.258,33.512A3.771,3.771,0,0,1,6.875,28.9,1.25,1.25,0,0,0,7.5,27.856a5,5,0,0,1,8.578-3.347,1.25,1.25,0,0,0,1.169.345A3.749,3.749,0,1,1,18.6,32.222l-.13-.023a7.186,7.186,0,0,1,1.685-3.3,1.25,1.25,0,0,0-1.84-1.692l-.014.015a9.7,9.7,0,0,0-2.312,4.645,1.244,1.244,0,0,0-.566.2l-1.762-4.514a1.25,1.25,0,0,0-2.329.909L13.1,32.971a1.251,1.251,0,0,0-.548.239A9.7,9.7,0,0,0,7.7,31.359a1.25,1.25,0,0,0-.229,2.49,7.186,7.186,0,0,1,3.476,1.287c-.028.035-.054.07-.081.105a3.738,3.738,0,0,1-5.609-1.729ZM16.239,50.7l2.113-.824a1.25,1.25,0,1,0-.9-2.332l-.009,0-2.324.907L14,46.2l1.371-.535a1.25,1.25,0,1,0-.909-2.329l-1.583.618L12.252,42.7a5.537,5.537,0,0,1-.214-4.514c1.371-3.241,5.388-3.93,7.7-3.005a5.537,5.537,0,0,1,2.9,3.465l1.99,6.882c.008.027.018.053.027.08a1.25,1.25,0,0,0-1.393-.341l-1.165.455a1.25,1.25,0,0,0,.909,2.329l1.165-.454a1.247,1.247,0,0,0,.722-.745,9.353,9.353,0,0,0,1.415,4.63l.635,1.016H17.139ZM75,67.5H5v-5H75ZM75,75H5V70H75Zm0-15H5V55H75Zm-9.1-7.5H64.571a7.777,7.777,0,0,1,.964-3.756,7.446,7.446,0,0,0,1.245.672A10.248,10.248,0,0,0,65.9,52.5Zm8.326-13.761a1.25,1.25,0,0,0-.133,1.387,5,5,0,0,1-4.4,7.374,4.949,4.949,0,0,1-3.068-1.053,1.25,1.25,0,0,0-.606-.253,6.547,6.547,0,0,1-3.076-1.255,1.25,1.25,0,0,0-1.5,0,6.547,6.547,0,0,1-3.076,1.255,1.25,1.25,0,0,0-.606.253A4.949,4.949,0,0,1,54.687,47.5a5,5,0,0,1-4.4-7.374,1.25,1.25,0,0,0-.133-1.387,3.433,3.433,0,0,1-.306-3.913l0-.005a3.448,3.448,0,0,1,.766-.9,1.25,1.25,0,0,0,.416-1.248,3.436,3.436,0,0,1,3.114-4.225,1.25,1.25,0,0,0,1-.623,8.123,8.123,0,0,1,14.083,0,1.25,1.25,0,0,0,1,.623,3.435,3.435,0,0,1,3.114,4.225,1.25,1.25,0,0,0,.416,1.249A3.43,3.43,0,0,1,75,36.562a3.394,3.394,0,0,1-.778,2.176Z"/>
      <path id="Caminho_2288" data-name="Caminho 2288" d="M62.187,26.25a5.008,5.008,0,0,0-4.715,3.333,1.25,1.25,0,1,0,2.357.833,2.5,2.5,0,0,1,4.716,0,1.25,1.25,0,0,0,2.357-.833A5.008,5.008,0,0,0,62.187,26.25Z"/>
      <path id="Caminho_2289" data-name="Caminho 2289" d="M55.937,35a1.25,1.25,0,0,0,0-2.5,3.75,3.75,0,0,0,0,7.5,1.25,1.25,0,0,0,0-2.5,1.25,1.25,0,0,1,0-2.5Z"/>
      <path id="Caminho_2290" data-name="Caminho 2290" d="M11.25,56.25H8.75a1.25,1.25,0,0,0,0,2.5h2.5a1.25,1.25,0,0,0,0-2.5Z"/>
      <path id="Caminho_2291" data-name="Caminho 2291" d="M68.75,58.75h2.5a1.25,1.25,0,0,0,0-2.5h-2.5a1.25,1.25,0,0,0,0,2.5Z"/>
      <path id="Caminho_2292" data-name="Caminho 2292" d="M41.25,56.25h-2.5a1.25,1.25,0,0,0,0,2.5h2.5a1.25,1.25,0,0,0,0-2.5Z"/>
      <path id="Caminho_2293" data-name="Caminho 2293" d="M31.969,50a1.25,1.25,0,0,0,.884-2.134,1.2,1.2,0,0,1-.225-1.388l.459-.919a1.25,1.25,0,0,0-2.236-1.118l-.46.918a3.7,3.7,0,0,0,.694,4.274,1.247,1.247,0,0,0,.885.367Z"/>
    </g>
  </g>
</svg>
