<?xml version="1.0" encoding="UTF-8" standalone="no"?>
<svg
   xmlns:dc="http://purl.org/dc/elements/1.1/"
   xmlns:cc="http://creativecommons.org/ns#"
   xmlns:rdf="http://www.w3.org/1999/02/22-rdf-syntax-ns#"
   xmlns:svg="http://www.w3.org/2000/svg"
   xmlns="http://www.w3.org/2000/svg"
   xmlns:sodipodi="http://sodipodi.sourceforge.net/DTD/sodipodi-0.dtd"
   xmlns:inkscape="http://www.inkscape.org/namespaces/inkscape"
   width="235.22"
   height="235.24898"
   viewBox="0 0 235.22 235.24898"
   version="1.1"
   id="svg90"
   sodipodi:docname="favicon.svg"
   inkscape:version="1.0.1 (3bc2e813f5, 2020-09-07)">
  <metadata
     id="metadata96">
    <rdf:RDF>
      <cc:Work
         rdf:about="">
        <dc:format>image/svg+xml</dc:format>
        <dc:type
           rdf:resource="http://purl.org/dc/dcmitype/StillImage" />
        <dc:title></dc:title>
      </cc:Work>
    </rdf:RDF>
  </metadata>
  <defs
     id="defs94" />
  <sodipodi:namedview
     pagecolor="#ffffff"
     bordercolor="#666666"
     borderopacity="1"
     objecttolerance="10"
     gridtolerance="10"
     guidetolerance="10"
     inkscape:pageopacity="0"
     inkscape:pageshadow="2"
     inkscape:window-width="1366"
     inkscape:window-height="704"
     id="namedview92"
     showgrid="false"
     inkscape:zoom="1.3370761"
     inkscape:cx="436.33999"
     inkscape:cy="117.62295"
     inkscape:window-x="0"
     inkscape:window-y="0"
     inkscape:window-maximized="1"
     inkscape:current-layer="svg90" />
  <g
     id="g193"
     transform="translate(-0.03000357,-0.0010235)">
    <g
       id="Grupo_159"
       data-name="Grupo 159"
       transform="translate(-64.25,-182.26)">
      <g
         id="Grupo_158"
         data-name="Grupo 158">
        <path
           id="Caminho_2407"
           data-name="Caminho 2407"
           d="m 299.5,299.9 v 0.19 q -2.835,-1.575 -5.74,-3.03 c -2.33,-1.16 -4.7,-2.27 -7.09,-3.3 a 147.381,147.381 0 0 0 -13.83,-5.25 91.668,91.668 0 1 0 -170.42,57.06 q -4.08,5.76 -7.61,11.89 c -1.39,2.44 -2.72,4.91 -3.99,7.43 q -1.455,2.88 -2.79,5.85 A 117.61,117.61 0 1 1 299.5,299.9 Z"
           fill="#ffa412" />
      </g>
    </g>
    <path
       id="Caminho_2408"
       data-name="Caminho 2408"
       d="M 184.99,100.21 A 147.533,147.533 0 0 0 53.33,144.28 69.589,69.589 0 1 1 184.99,100.21 Z"
       fill="#ffd400" />
    <path
       id="Caminho_2409"
       data-name="Caminho 2409"
       d="m 234.8,128.03 a 117.54,117.54 0 0 1 -3.58,20.24 c -0.7,2.56 -1.47,5.07 -2.32,7.55 a 114.065,114.065 0 0 0 -13.92,-8.33 112.112,112.112 0 0 0 -14.68,-6.24 114.51,114.51 0 0 0 -15.83,-4.24 117.055,117.055 0 0 0 -118.94,48.98 116.417,116.417 0 0 0 -14.29,28.7 c -2.03,-1.38 -4,-2.84 -5.94,-4.34 v -0.01 a 116.468,116.468 0 0 1 -15.39,-14.4 145.2,145.2 0 0 1 7.66,-15.4 142.805,142.805 0 0 1 9.28,-14.14 140.3,140.3 0 0 1 11,-13.11 143.411,143.411 0 0 1 128.97,-42.9 139.934,139.934 0 0 1 16.7,3.95 145.5,145.5 0 0 1 31.28,13.69 z"
       fill="#36a9e1" />
    <g
       id="Grupo_160"
       data-name="Grupo 160"
       transform="translate(-64.25,-182.26)">
      <path
         id="Caminho_2410"
         data-name="Caminho 2410"
         d="m 272.04,375.35 a 114.936,114.936 0 0 1 -9.13,9.72 120.523,120.523 0 0 1 -10.51,8.9 47.7,47.7 0 0 0 -60.67,7.23 47.692,47.692 0 0 0 -10.16,16.31 113.394,113.394 0 0 1 -13.74,-0.85 112.046,112.046 0 0 1 -13.16,-2.33 72.986,72.986 0 0 1 5.9,-14.89 74.517,74.517 0 0 1 55.71,-39.09 h 0.01 a 74.539,74.539 0 0 1 42.16,6.59 73.922,73.922 0 0 1 13.59,8.41 z"
         fill="#3aaa35" />
    </g>
    <path
       id="Caminho_2411"
       data-name="Caminho 2411"
       d="m 226.02,163.32 a 117.668,117.668 0 0 1 -13.19,23.31 82.612,82.612 0 0 0 -13.35,-8.48 82.449,82.449 0 0 0 -35.2,-8.91 c -0.71,-0.01 -1.42,-0.03 -2.13,-0.03 a 82.178,82.178 0 0 0 -51.01,17.68 83.946,83.946 0 0 0 -14.13,14.19 82.468,82.468 0 0 0 -8.81,14.02 80.05,80.05 0 0 0 -5.66,14.8 115.994,115.994 0 0 1 -24.5,-10.92 105.911,105.911 0 0 1 5.93,-14.85 108.062,108.062 0 0 1 7.96,-13.73 110.337,110.337 0 0 1 10.29,-12.89 109.016,109.016 0 0 1 99.62,-33.11 107.669,107.669 0 0 1 15.97,4.2 105.236,105.236 0 0 1 14.57,6.28 110.705,110.705 0 0 1 13.64,8.44 z"
       fill="#008d36" />
  </g>
</svg>
